solid OpenSCAD_Model
  facet normal -1 0 0
    outer loop
      vertex 0 34 -2.5
      vertex 0 32.2 -0.5
      vertex 0 34 1
    endloop
  endfacet
  facet normal -1 0 0
    outer loop
      vertex 0 -1 -2.5
      vertex 0 32.2 -0.5
      vertex 0 34 -2.5
    endloop
  endfacet
  facet normal -1 -0 0
    outer loop
      vertex 0 0 -0.5
      vertex 0 -1 -2.5
      vertex 0 0 5
    endloop
  endfacet
  facet normal -1 -0 0
    outer loop
      vertex 0 32.2 -0.5
      vertex 0 -1 -2.5
      vertex 0 0 -0.5
    endloop
  endfacet
  facet normal -1 -0 0
    outer loop
      vertex 0 34 1
      vertex 0 32.2 -0.5
      vertex 0 32.2 1
    endloop
  endfacet
  facet normal -1 0 0
    outer loop
      vertex 0 32.2 5
      vertex 0 34 2
      vertex 0 32.2 2
    endloop
  endfacet
  facet normal -1 0 0
    outer loop
      vertex 0 34 2
      vertex 0 32.2 5
      vertex 0 34 7
    endloop
  endfacet
  facet normal -1 0 0
    outer loop
      vertex 0 -1 7
      vertex 0 32.2 5
      vertex 0 0 5
    endloop
  endfacet
  facet normal -1 0 0
    outer loop
      vertex 0 32.2 5
      vertex 0 -1 7
      vertex 0 34 7
    endloop
  endfacet
  facet normal -1 0 0
    outer loop
      vertex 0 -1 7
      vertex 0 0 5
      vertex 0 -1 -2.5
    endloop
  endfacet
  facet normal 0 0 1
    outer loop
      vertex 55 26 7
      vertex 9.4 26 7
      vertex 55 20 7
    endloop
  endfacet
  facet normal 0 0 1
    outer loop
      vertex 61 20 7
      vertex 69 34 7
      vertex 61 32.3 7
    endloop
  endfacet
  facet normal 0 0 1
    outer loop
      vertex 69 34 7
      vertex 9.4 32.3 7
      vertex 61 32.3 7
    endloop
  endfacet
  facet normal 0 0 1
    outer loop
      vertex 9.4 32.3 7
      vertex 0 34 7
      vertex 9.4 26 7
    endloop
  endfacet
  facet normal -0 0 1
    outer loop
      vertex 0 34 7
      vertex 9.4 32.3 7
      vertex 69 34 7
    endloop
  endfacet
  facet normal 0 0 1
    outer loop
      vertex 69 34 7
      vertex 61 20 7
      vertex 69 -1 7
    endloop
  endfacet
  facet normal -0 0 1
    outer loop
      vertex 55 20 7
      vertex 69 -1 7
      vertex 61 20 7
    endloop
  endfacet
  facet normal 0 0 1
    outer loop
      vertex 0 -1 7
      vertex 55 20 7
      vertex 9.4 26 7
    endloop
  endfacet
  facet normal 0 0 1
    outer loop
      vertex 55 20 7
      vertex 0 -1 7
      vertex 69 -1 7
    endloop
  endfacet
  facet normal 0 0 1
    outer loop
      vertex 0 -1 7
      vertex 9.4 26 7
      vertex 0 34 7
    endloop
  endfacet
  facet normal 1 0 0
    outer loop
      vertex 69 34 7
      vertex 69 32.2 5
      vertex 69 34 2
    endloop
  endfacet
  facet normal 1 -0 0
    outer loop
      vertex 69 -1 7
      vertex 69 32.2 5
      vertex 69 34 7
    endloop
  endfacet
  facet normal 1 0 0
    outer loop
      vertex 69 0 5
      vertex 69 -1 7
      vertex 69 0 -0.5
    endloop
  endfacet
  facet normal 1 0 0
    outer loop
      vertex 69 32.2 5
      vertex 69 -1 7
      vertex 69 0 5
    endloop
  endfacet
  facet normal 1 0 0
    outer loop
      vertex 69 34 2
      vertex 69 32.2 5
      vertex 69 32.2 2
    endloop
  endfacet
  facet normal 1 0 0
    outer loop
      vertex 69 32.2 -0.5
      vertex 69 34 1
      vertex 69 32.2 1
    endloop
  endfacet
  facet normal 1 0 0
    outer loop
      vertex 69 34 1
      vertex 69 32.2 -0.5
      vertex 69 34 -2.5
    endloop
  endfacet
  facet normal 1 0 0
    outer loop
      vertex 69 -1 -2.5
      vertex 69 32.2 -0.5
      vertex 69 0 -0.5
    endloop
  endfacet
  facet normal 1 0 0
    outer loop
      vertex 69 32.2 -0.5
      vertex 69 -1 -2.5
      vertex 69 34 -2.5
    endloop
  endfacet
  facet normal 1 0 0
    outer loop
      vertex 69 -1 -2.5
      vertex 69 0 -0.5
      vertex 69 -1 7
    endloop
  endfacet
  facet normal 0 1 -0
    outer loop
      vertex 69 34 2
      vertex 0 34 7
      vertex 69 34 7
    endloop
  endfacet
  facet normal 0 1 0
    outer loop
      vertex 0 34 7
      vertex 69 34 2
      vertex 0 34 2
    endloop
  endfacet
  facet normal 0 1 -0
    outer loop
      vertex 69 34 -2.5
      vertex 0 34 1
      vertex 69 34 1
    endloop
  endfacet
  facet normal 0 1 0
    outer loop
      vertex 0 34 1
      vertex 69 34 -2.5
      vertex 0 34 -2.5
    endloop
  endfacet
  facet normal 0 0 -1
    outer loop
      vertex 0 -1 -2.5
      vertex 69 34 -2.5
      vertex 69 -1 -2.5
    endloop
  endfacet
  facet normal -0 0 -1
    outer loop
      vertex 69 34 -2.5
      vertex 0 -1 -2.5
      vertex 0 34 -2.5
    endloop
  endfacet
  facet normal 0 -1 0
    outer loop
      vertex 48 -1 1.6
      vertex 52.5 -1 3.9
      vertex 48 -1 3.9
    endloop
  endfacet
  facet normal 0 -1 -0
    outer loop
      vertex 52.5 -1 3.9
      vertex 48 -1 1.6
      vertex 52.5 -1 1.6
    endloop
  endfacet
  facet normal 0 -1 0
    outer loop
      vertex 21 -1 1.7
      vertex 40 -1 3.9
      vertex 21 -1 4.6
    endloop
  endfacet
  facet normal 0 -1 -0
    outer loop
      vertex 40 -1 3.9
      vertex 21 -1 1.7
      vertex 40 -1 1.6
    endloop
  endfacet
  facet normal 0 -1 0
    outer loop
      vertex 21 -1 4.6
      vertex 0 -1 7
      vertex 9 -1 4.6
    endloop
  endfacet
  facet normal 0 -1 0
    outer loop
      vertex 0 -1 7
      vertex 9 -1 1.7
      vertex 9 -1 4.6
    endloop
  endfacet
  facet normal 0 -1 0
    outer loop
      vertex 0 -1 -2.5
      vertex 21 -1 1.7
      vertex 9 -1 1.7
    endloop
  endfacet
  facet normal 0 -1 0
    outer loop
      vertex 69 -1 -2.5
      vertex 48 -1 1.6
      vertex 40 -1 1.6
    endloop
  endfacet
  facet normal 0 -1 0
    outer loop
      vertex 48 -1 1.6
      vertex 69 -1 -2.5
      vertex 52.5 -1 1.6
    endloop
  endfacet
  facet normal 0 -1 0
    outer loop
      vertex 69 -1 -2.5
      vertex 40 -1 1.6
      vertex 0 -1 -2.5
    endloop
  endfacet
  facet normal 0 -1 -0
    outer loop
      vertex 21 -1 1.7
      vertex 0 -1 -2.5
      vertex 40 -1 1.6
    endloop
  endfacet
  facet normal 0 -1 0
    outer loop
      vertex 0 -1 -2.5
      vertex 9 -1 1.7
      vertex 0 -1 7
    endloop
  endfacet
  facet normal 0 -1 0
    outer loop
      vertex 0 -1 7
      vertex 21 -1 4.6
      vertex 69 -1 7
    endloop
  endfacet
  facet normal 0 -1 0
    outer loop
      vertex 40 -1 3.9
      vertex 69 -1 7
      vertex 21 -1 4.6
    endloop
  endfacet
  facet normal 0 -1 0
    outer loop
      vertex 48 -1 3.9
      vertex 69 -1 7
      vertex 40 -1 3.9
    endloop
  endfacet
  facet normal 0 -1 0
    outer loop
      vertex 52.5 -1 3.9
      vertex 69 -1 7
      vertex 48 -1 3.9
    endloop
  endfacet
  facet normal 0 -1 0
    outer loop
      vertex 60.5 -1 3.9
      vertex 69 -1 7
      vertex 52.5 -1 3.9
    endloop
  endfacet
  facet normal 0 -1 0
    outer loop
      vertex 60.5 -1 1.6
      vertex 69 -1 7
      vertex 60.5 -1 3.9
    endloop
  endfacet
  facet normal 0 -1 0
    outer loop
      vertex 60.5 -1 1.6
      vertex 69 -1 -2.5
      vertex 69 -1 7
    endloop
  endfacet
  facet normal 0 -1 0
    outer loop
      vertex 52.5 -1 1.6
      vertex 69 -1 -2.5
      vertex 60.5 -1 1.6
    endloop
  endfacet
  facet normal 0 0 -1
    outer loop
      vertex 69 0 5
      vertex 61 20 5
      vertex 69 32.2 5
    endloop
  endfacet
  facet normal 0 0 -1
    outer loop
      vertex 69 0 5
      vertex 55 20 5
      vertex 61 20 5
    endloop
  endfacet
  facet normal 0 0 -1
    outer loop
      vertex 55 20 5
      vertex 9.4 26 5
      vertex 55 26 5
    endloop
  endfacet
  facet normal 0 0 -1
    outer loop
      vertex 0 0 5
      vertex 55 20 5
      vertex 69 0 5
    endloop
  endfacet
  facet normal -0 0 -1
    outer loop
      vertex 55 20 5
      vertex 0 0 5
      vertex 9.4 26 5
    endloop
  endfacet
  facet normal 0 0 -1
    outer loop
      vertex 0 32.2 5
      vertex 9.4 26 5
      vertex 0 0 5
    endloop
  endfacet
  facet normal 0 0 -1
    outer loop
      vertex 9.4 26 5
      vertex 0 32.2 5
      vertex 9.4 32.2 5
    endloop
  endfacet
  facet normal -0 0 -1
    outer loop
      vertex 69 32.2 5
      vertex 61 20 5
      vertex 61 32.2 5
    endloop
  endfacet
  facet normal 0 -1 0
    outer loop
      vertex 61 32.2 2
      vertex 69 32.2 5
      vertex 61 32.2 5
    endloop
  endfacet
  facet normal 0 -1 -0
    outer loop
      vertex 69 32.2 5
      vertex 61 32.2 2
      vertex 69 32.2 2
    endloop
  endfacet
  facet normal 0 -1 0
    outer loop
      vertex 0 32.2 -0.5
      vertex 9.4 32.2 1
      vertex 0 32.2 1
    endloop
  endfacet
  facet normal 0 -1 -0
    outer loop
      vertex 9.4 32.2 1
      vertex 0 32.2 -0.5
      vertex 9.4 32.2 -0.5
    endloop
  endfacet
  facet normal 0 -1 0
    outer loop
      vertex 61 32.2 -0.5
      vertex 69 32.2 1
      vertex 61 32.2 1
    endloop
  endfacet
  facet normal 0 -1 -0
    outer loop
      vertex 69 32.2 1
      vertex 61 32.2 -0.5
      vertex 69 32.2 -0.5
    endloop
  endfacet
  facet normal 0 -1 0
    outer loop
      vertex 0 32.2 2
      vertex 9.4 32.2 5
      vertex 0 32.2 5
    endloop
  endfacet
  facet normal 0 -1 -0
    outer loop
      vertex 9.4 32.2 5
      vertex 0 32.2 2
      vertex 9.4 32.2 2
    endloop
  endfacet
  facet normal 0 0 1
    outer loop
      vertex 9.4 32.2 -0.5
      vertex 0 32.2 -0.5
      vertex 9.4 26 -0.5
    endloop
  endfacet
  facet normal 0 0 1
    outer loop
      vertex 55 26 -0.5
      vertex 9.4 26 -0.5
      vertex 55 20 -0.5
    endloop
  endfacet
  facet normal 0 0 1
    outer loop
      vertex 61 20 -0.5
      vertex 69 32.2 -0.5
      vertex 61 32.2 -0.5
    endloop
  endfacet
  facet normal 0 0 1
    outer loop
      vertex 69 32.2 -0.5
      vertex 61 20 -0.5
      vertex 69 0 -0.5
    endloop
  endfacet
  facet normal -0 0 1
    outer loop
      vertex 55 20 -0.5
      vertex 69 0 -0.5
      vertex 61 20 -0.5
    endloop
  endfacet
  facet normal 0 0 1
    outer loop
      vertex 0 0 -0.5
      vertex 55 20 -0.5
      vertex 9.4 26 -0.5
    endloop
  endfacet
  facet normal 0 0 1
    outer loop
      vertex 55 20 -0.5
      vertex 0 0 -0.5
      vertex 69 0 -0.5
    endloop
  endfacet
  facet normal 0 0 1
    outer loop
      vertex 0 0 -0.5
      vertex 9.4 26 -0.5
      vertex 0 32.2 -0.5
    endloop
  endfacet
  facet normal 0 1 -0
    outer loop
      vertex 52.5 0 1.6
      vertex 48 0 3.9
      vertex 52.5 0 3.9
    endloop
  endfacet
  facet normal 0 1 0
    outer loop
      vertex 48 0 3.9
      vertex 52.5 0 1.6
      vertex 48 0 1.6
    endloop
  endfacet
  facet normal 0 1 0
    outer loop
      vertex 69 0 5
      vertex 21 0 4.6
      vertex 0 0 5
    endloop
  endfacet
  facet normal 0 1 0
    outer loop
      vertex 52.5 0 3.9
      vertex 69 0 5
      vertex 60.5 0 3.9
    endloop
  endfacet
  facet normal 0 1 0
    outer loop
      vertex 69 0 5
      vertex 60.5 0 1.6
      vertex 60.5 0 3.9
    endloop
  endfacet
  facet normal 0 1 0
    outer loop
      vertex 69 0 -0.5
      vertex 52.5 0 1.6
      vertex 60.5 0 1.6
    endloop
  endfacet
  facet normal 0 1 0
    outer loop
      vertex 52.5 0 1.6
      vertex 69 0 -0.5
      vertex 48 0 1.6
    endloop
  endfacet
  facet normal 0 1 0
    outer loop
      vertex 48 0 1.6
      vertex 69 0 -0.5
      vertex 40 0 1.6
    endloop
  endfacet
  facet normal 0 1 -0
    outer loop
      vertex 69 0 -0.5
      vertex 60.5 0 1.6
      vertex 69 0 5
    endloop
  endfacet
  facet normal 0 1 -0
    outer loop
      vertex 9 0 4.6
      vertex 0 0 5
      vertex 21 0 4.6
    endloop
  endfacet
  facet normal 0 1 -0
    outer loop
      vertex 9 0 1.7
      vertex 0 0 5
      vertex 9 0 4.6
    endloop
  endfacet
  facet normal 0 1 0
    outer loop
      vertex 40 0 1.6
      vertex 0 0 -0.5
      vertex 21 0 1.7
    endloop
  endfacet
  facet normal 0 1 0
    outer loop
      vertex 9 0 1.7
      vertex 0 0 -0.5
      vertex 0 0 5
    endloop
  endfacet
  facet normal 0 1 0
    outer loop
      vertex 21 0 1.7
      vertex 0 0 -0.5
      vertex 9 0 1.7
    endloop
  endfacet
  facet normal 0 1 0
    outer loop
      vertex 48 0 3.9
      vertex 69 0 5
      vertex 52.5 0 3.9
    endloop
  endfacet
  facet normal 0 1 0
    outer loop
      vertex 69 0 5
      vertex 48 0 3.9
      vertex 21 0 4.6
    endloop
  endfacet
  facet normal 0 1 -0
    outer loop
      vertex 40 0 3.9
      vertex 21 0 4.6
      vertex 48 0 3.9
    endloop
  endfacet
  facet normal 0 1 0
    outer loop
      vertex 40 0 3.9
      vertex 21 0 1.7
      vertex 21 0 4.6
    endloop
  endfacet
  facet normal 0 1 0
    outer loop
      vertex 0 0 -0.5
      vertex 40 0 1.6
      vertex 69 0 -0.5
    endloop
  endfacet
  facet normal 0 1 -0
    outer loop
      vertex 40 0 1.6
      vertex 21 0 1.7
      vertex 40 0 3.9
    endloop
  endfacet
  facet normal 0 0 -1
    outer loop
      vertex 9.4 32.2 2
      vertex 0 32.2 2
      vertex 9.4 32.3 2
    endloop
  endfacet
  facet normal 0 0 -1
    outer loop
      vertex 61 32.3 2
      vertex 69 32.2 2
      vertex 61 32.2 2
    endloop
  endfacet
  facet normal 0 0 -1
    outer loop
      vertex 69 32.2 2
      vertex 61 32.3 2
      vertex 69 34 2
    endloop
  endfacet
  facet normal 0 0 -1
    outer loop
      vertex 9.4 32.3 2
      vertex 69 34 2
      vertex 61 32.3 2
    endloop
  endfacet
  facet normal 0 0 -1
    outer loop
      vertex 0 34 2
      vertex 9.4 32.3 2
      vertex 0 32.2 2
    endloop
  endfacet
  facet normal 0 0 -1
    outer loop
      vertex 9.4 32.3 2
      vertex 0 34 2
      vertex 69 34 2
    endloop
  endfacet
  facet normal 0 0 1
    outer loop
      vertex 69 34 1
      vertex 61 32.3 1
      vertex 69 32.2 1
    endloop
  endfacet
  facet normal 0 0 1
    outer loop
      vertex 69 34 1
      vertex 9.4 32.3 1
      vertex 61 32.3 1
    endloop
  endfacet
  facet normal -0 0 1
    outer loop
      vertex 0 34 1
      vertex 9.4 32.3 1
      vertex 69 34 1
    endloop
  endfacet
  facet normal 0 0 1
    outer loop
      vertex 0 32.2 1
      vertex 9.4 32.3 1
      vertex 0 34 1
    endloop
  endfacet
  facet normal 0 0 1
    outer loop
      vertex 9.4 32.3 1
      vertex 0 32.2 1
      vertex 9.4 32.2 1
    endloop
  endfacet
  facet normal 0 0 1
    outer loop
      vertex 69 32.2 1
      vertex 61 32.3 1
      vertex 61 32.2 1
    endloop
  endfacet
  facet normal 1 -0 0
    outer loop
      vertex 9 -1 4.6
      vertex 9 0 1.7
      vertex 9 0 4.6
    endloop
  endfacet
  facet normal 1 0 0
    outer loop
      vertex 9 0 1.7
      vertex 9 -1 4.6
      vertex 9 -1 1.7
    endloop
  endfacet
  facet normal 0 0 -1
    outer loop
      vertex 9 -1 4.6
      vertex 21 0 4.6
      vertex 21 -1 4.6
    endloop
  endfacet
  facet normal -0 0 -1
    outer loop
      vertex 21 0 4.6
      vertex 9 -1 4.6
      vertex 9 0 4.6
    endloop
  endfacet
  facet normal -1 0 0
    outer loop
      vertex 21 -1 1.7
      vertex 21 0 4.6
      vertex 21 0 1.7
    endloop
  endfacet
  facet normal -1 -0 0
    outer loop
      vertex 21 0 4.6
      vertex 21 -1 1.7
      vertex 21 -1 4.6
    endloop
  endfacet
  facet normal -0 0 1
    outer loop
      vertex 9 0 1.7
      vertex 21 -1 1.7
      vertex 21 0 1.7
    endloop
  endfacet
  facet normal 0 0 1
    outer loop
      vertex 21 -1 1.7
      vertex 9 0 1.7
      vertex 9 -1 1.7
    endloop
  endfacet
  facet normal 1 -0 0
    outer loop
      vertex 40 -1 3.9
      vertex 40 0 1.6
      vertex 40 0 3.9
    endloop
  endfacet
  facet normal 1 0 0
    outer loop
      vertex 40 0 1.6
      vertex 40 -1 3.9
      vertex 40 -1 1.6
    endloop
  endfacet
  facet normal 0 0 -1
    outer loop
      vertex 40 -1 3.9
      vertex 48 0 3.9
      vertex 48 -1 3.9
    endloop
  endfacet
  facet normal -0 0 -1
    outer loop
      vertex 48 0 3.9
      vertex 40 -1 3.9
      vertex 40 0 3.9
    endloop
  endfacet
  facet normal -1 0 0
    outer loop
      vertex 48 -1 1.6
      vertex 48 0 3.9
      vertex 48 0 1.6
    endloop
  endfacet
  facet normal -1 -0 0
    outer loop
      vertex 48 0 3.9
      vertex 48 -1 1.6
      vertex 48 -1 3.9
    endloop
  endfacet
  facet normal -0 0 1
    outer loop
      vertex 40 0 1.6
      vertex 48 -1 1.6
      vertex 48 0 1.6
    endloop
  endfacet
  facet normal 0 0 1
    outer loop
      vertex 48 -1 1.6
      vertex 40 0 1.6
      vertex 40 -1 1.6
    endloop
  endfacet
  facet normal 1 -0 0
    outer loop
      vertex 52.5 -1 3.9
      vertex 52.5 0 1.6
      vertex 52.5 0 3.9
    endloop
  endfacet
  facet normal 1 0 0
    outer loop
      vertex 52.5 0 1.6
      vertex 52.5 -1 3.9
      vertex 52.5 -1 1.6
    endloop
  endfacet
  facet normal 0 0 -1
    outer loop
      vertex 52.5 -1 3.9
      vertex 60.5 0 3.9
      vertex 60.5 -1 3.9
    endloop
  endfacet
  facet normal -0 0 -1
    outer loop
      vertex 60.5 0 3.9
      vertex 52.5 -1 3.9
      vertex 52.5 0 3.9
    endloop
  endfacet
  facet normal -1 0 0
    outer loop
      vertex 60.5 -1 1.6
      vertex 60.5 0 3.9
      vertex 60.5 0 1.6
    endloop
  endfacet
  facet normal -1 -0 0
    outer loop
      vertex 60.5 0 3.9
      vertex 60.5 -1 1.6
      vertex 60.5 -1 3.9
    endloop
  endfacet
  facet normal -0 0 1
    outer loop
      vertex 52.5 0 1.6
      vertex 60.5 -1 1.6
      vertex 60.5 0 1.6
    endloop
  endfacet
  facet normal 0 0 1
    outer loop
      vertex 60.5 -1 1.6
      vertex 52.5 0 1.6
      vertex 52.5 -1 1.6
    endloop
  endfacet
  facet normal 1 -0 0
    outer loop
      vertex 55 20 -0.5
      vertex 55 26 -2
      vertex 55 26 -0.5
    endloop
  endfacet
  facet normal 1 0 0
    outer loop
      vertex 55 26 -2
      vertex 55 20 -0.5
      vertex 55 20 -2
    endloop
  endfacet
  facet normal 1 -0 0
    outer loop
      vertex 55 20 7
      vertex 55 26 5
      vertex 55 26 7
    endloop
  endfacet
  facet normal 1 0 0
    outer loop
      vertex 55 26 5
      vertex 55 20 7
      vertex 55 20 5
    endloop
  endfacet
  facet normal -1 0 0
    outer loop
      vertex 61 32.3 -2
      vertex 61 32.2 -0.5
      vertex 61 32.3 1
    endloop
  endfacet
  facet normal -1 0 0
    outer loop
      vertex 61 20 -2
      vertex 61 32.2 -0.5
      vertex 61 32.3 -2
    endloop
  endfacet
  facet normal -1 -0 0
    outer loop
      vertex 61 32.2 -0.5
      vertex 61 20 -2
      vertex 61 20 -0.5
    endloop
  endfacet
  facet normal -1 -0 0
    outer loop
      vertex 61 32.3 1
      vertex 61 32.2 -0.5
      vertex 61 32.2 1
    endloop
  endfacet
  facet normal -1 0 0
    outer loop
      vertex 61 32.2 5
      vertex 61 32.3 2
      vertex 61 32.2 2
    endloop
  endfacet
  facet normal -1 0 0
    outer loop
      vertex 61 32.3 2
      vertex 61 32.2 5
      vertex 61 32.3 7
    endloop
  endfacet
  facet normal -1 0 0
    outer loop
      vertex 61 20 7
      vertex 61 32.2 5
      vertex 61 20 5
    endloop
  endfacet
  facet normal -1 0 0
    outer loop
      vertex 61 32.2 5
      vertex 61 20 7
      vertex 61 32.3 7
    endloop
  endfacet
  facet normal 0 -1 0
    outer loop
      vertex 9.4 32.3 -2
      vertex 61 32.3 1
      vertex 9.4 32.3 1
    endloop
  endfacet
  facet normal 0 -1 -0
    outer loop
      vertex 61 32.3 1
      vertex 9.4 32.3 -2
      vertex 61 32.3 -2
    endloop
  endfacet
  facet normal 0 -1 0
    outer loop
      vertex 9.4 32.3 2
      vertex 61 32.3 7
      vertex 9.4 32.3 7
    endloop
  endfacet
  facet normal 0 -1 -0
    outer loop
      vertex 61 32.3 7
      vertex 9.4 32.3 2
      vertex 61 32.3 2
    endloop
  endfacet
  facet normal 0 0 1
    outer loop
      vertex 61 32.3 -2
      vertex 55 26 -2
      vertex 61 20 -2
    endloop
  endfacet
  facet normal -0 0 1
    outer loop
      vertex 9.4 32.3 -2
      vertex 55 26 -2
      vertex 61 32.3 -2
    endloop
  endfacet
  facet normal 0 0 1
    outer loop
      vertex 55 26 -2
      vertex 9.4 32.3 -2
      vertex 9.4 26 -2
    endloop
  endfacet
  facet normal 0 0 1
    outer loop
      vertex 61 20 -2
      vertex 55 26 -2
      vertex 55 20 -2
    endloop
  endfacet
  facet normal 0 1 -0
    outer loop
      vertex 61 20 -2
      vertex 55 20 -0.5
      vertex 61 20 -0.5
    endloop
  endfacet
  facet normal 0 1 0
    outer loop
      vertex 55 20 -0.5
      vertex 61 20 -2
      vertex 55 20 -2
    endloop
  endfacet
  facet normal 0 1 -0
    outer loop
      vertex 61 20 5
      vertex 55 20 7
      vertex 61 20 7
    endloop
  endfacet
  facet normal 0 1 0
    outer loop
      vertex 55 20 7
      vertex 61 20 5
      vertex 55 20 5
    endloop
  endfacet
  facet normal 1 0 0
    outer loop
      vertex 9.4 32.2 -0.5
      vertex 9.4 32.3 1
      vertex 9.4 32.2 1
    endloop
  endfacet
  facet normal 1 0 0
    outer loop
      vertex 9.4 32.3 1
      vertex 9.4 32.2 -0.5
      vertex 9.4 32.3 -2
    endloop
  endfacet
  facet normal 1 0 0
    outer loop
      vertex 9.4 26 -2
      vertex 9.4 32.2 -0.5
      vertex 9.4 26 -0.5
    endloop
  endfacet
  facet normal 1 0 0
    outer loop
      vertex 9.4 32.2 -0.5
      vertex 9.4 26 -2
      vertex 9.4 32.3 -2
    endloop
  endfacet
  facet normal 1 0 0
    outer loop
      vertex 9.4 32.3 7
      vertex 9.4 32.2 5
      vertex 9.4 32.3 2
    endloop
  endfacet
  facet normal 1 -0 0
    outer loop
      vertex 9.4 26 7
      vertex 9.4 32.2 5
      vertex 9.4 32.3 7
    endloop
  endfacet
  facet normal 1 0 0
    outer loop
      vertex 9.4 32.2 5
      vertex 9.4 26 7
      vertex 9.4 26 5
    endloop
  endfacet
  facet normal 1 0 0
    outer loop
      vertex 9.4 32.3 2
      vertex 9.4 32.2 5
      vertex 9.4 32.2 2
    endloop
  endfacet
  facet normal 0 1 -0
    outer loop
      vertex 55 26 -2
      vertex 9.4 26 -0.5
      vertex 55 26 -0.5
    endloop
  endfacet
  facet normal 0 1 0
    outer loop
      vertex 9.4 26 -0.5
      vertex 55 26 -2
      vertex 9.4 26 -2
    endloop
  endfacet
  facet normal 0 1 -0
    outer loop
      vertex 55 26 5
      vertex 9.4 26 7
      vertex 55 26 7
    endloop
  endfacet
  facet normal 0 1 0
    outer loop
      vertex 9.4 26 7
      vertex 55 26 5
      vertex 9.4 26 5
    endloop
  endfacet
endsolid OpenSCAD_Model
